<svg width="863" height="949" viewBox="0 0 863 949" fill="none" xmlns="http://www.w3.org/2000/svg">
<path d="M354.475 211.334C354.475 231.063 357.397 250.549 347.948 268.266C337.485 287.883 307.249 301.52 287.39 307.792C270.61 313.09 225.234 320.752 209.426 310.693C190.687 298.768 163.935 272.576 158.84 250.497C150.01 212.234 148.514 179.869 169.175 146.062C176.8 133.583 209.521 135.21 222.299 128.112C232.321 122.544 243.245 123.024 253.484 128.656C281.78 144.218 302.257 170.505 302.257 203.175C302.257 215.092 303.469 225.582 290.291 230.915C276.119 236.651 256.197 240.706 240.974 240.706C234.782 240.706 216.039 240.277 214.321 232.547C213.15 227.277 211.755 203.942 215.953 201.543C224.41 196.71 225.653 191.752 236.985 191.752C247.6 191.752 240.264 201.533 250.039 195.016" stroke="#3C3131" stroke-width="17" stroke-linecap="round"/>
<path d="M292.465 87.3168C312.822 60.6958 338.108 36.4423 364.264 15.5175" stroke="#3C3131" stroke-width="17" stroke-linecap="round"/>
<path d="M380.582 136.271C411.673 136.271 441.713 140.022 472.507 144.249C479.412 145.196 496.55 144.9 485.017 152.589" stroke="#3C3131" stroke-width="17" stroke-linecap="round"/>
<path d="M432.801 230.915C439.768 244.85 446.487 258.571 455.465 271.348C459.679 277.345 468.682 284.723 471.601 291.292C474.372 297.525 476.193 299.634 471.964 305.978" stroke="#3C3131" stroke-width="17" stroke-linecap="round"/>
<path d="M328.365 364.723C336.025 384.098 338.179 403.773 344.683 423.287C348.725 435.413 354.032 441.567 341.42 436.523" stroke="#3C3131" stroke-width="17" stroke-linecap="round"/>
<path d="M181.504 403.887C178.018 420.152 176.278 432.608 161.922 439.786" stroke="#3C3131" stroke-width="17" stroke-linecap="round"/>
<path d="M129.285 312.506C106.061 320.393 86.0074 322.107 62.3815 325.741C57.341 326.517 50.6402 331.768 47.6953 328.824" stroke="#3C3131" stroke-width="17" stroke-linecap="round"/>
<path d="M86.8574 8.99023C112.682 31.4613 158.909 51.9215 174.975 84.0532" stroke="#3C3131" stroke-width="17" stroke-linecap="round"/>
<path d="M8.53125 162.38C37.9842 162.38 126.102 168.907 96.6486 168.907" stroke="#3C3131" stroke-width="17" stroke-linecap="round"/>
<path d="M622.09 325.56C576.714 325.56 501.336 334.35 501.336 395.546C501.336 399.752 534.332 446.314 529.802 446.314C503.967 446.314 478.339 449.114 452.382 449.577C427.047 450.03 421.151 455.553 413.219 477.862C405.698 499.014 407.667 530.287 432.075 539.508C445.095 544.426 467.729 541.425 481.211 540.595C484.909 540.368 539.734 534.126 518.742 538.42C484.937 545.334 441.92 537.175 411.768 557.276C401.583 564.066 385.188 592.327 392.005 604.598C402.014 622.614 423.791 622.878 441.141 627.444C452.593 630.457 462.34 628.525 473.414 626.537C494.052 622.833 516.278 633.936 537.055 627.444C558.797 620.649 583.672 627.135 605.046 620.01C626.204 612.957 635.876 586.826 645.66 569.605C647.589 566.211 651.903 549.5 656.539 554.556C663.693 562.361 670.27 567.177 680.472 570.331C708.939 579.129 739.331 576.907 768.408 581.753C776.525 583.106 785.408 584.655 793.61 582.66C812.308 578.112 847.279 571.077 847.279 547.485C847.279 522.777 842.212 510.289 826.065 490.554C808.624 469.237 788.205 472.777 762.425 469.34C750.077 467.694 786.877 464.553 799.05 461.906C811.656 459.166 826.319 453.208 835.856 444.5C852.284 429.501 854.653 409.484 853.806 388.294C853.463 379.728 808.018 380.872 801.588 381.041C794.72 381.222 788.428 384.411 783.638 389.2C780.707 392.132 773.666 400.78 773.666 396.634C773.666 386.422 785.89 374.018 789.984 365.086C794.272 355.731 795.061 350.512 795.061 340.065C795.061 327.59 794.982 310.694 789.984 299.27C782.99 283.284 757.04 282.137 741.393 280.051C722.929 277.589 701.143 280.897 683.01 283.315C668.542 285.244 664.344 297.667 656.358 307.429C650.341 314.783 647.385 321.66 640.946 328.098C637.798 331.247 656.301 291.081 647.473 283.858C644.178 281.162 620.892 281.331 618.826 284.946C616.011 289.873 615.265 293.795 615.563 299.451C616.336 314.148 623.618 330.421 638.408 335.351" stroke="#3C3131" stroke-width="17" stroke-linecap="round"/>
<path d="M533.973 691.084C516.19 718.027 510.535 737.419 511.127 769.411C511.64 797.073 527.735 780.494 535.605 765.966C549.746 739.858 543.764 716.277 543.764 687.82" stroke="#3C3131" stroke-width="17" stroke-linecap="round"/>
<path d="M700.417 602.967C700.417 621.615 689.739 660.337 702.23 676.398C712.453 689.54 714.797 664.03 716.01 657.36C719.434 638.529 713.472 621.469 713.472 602.967" stroke="#3C3131" stroke-width="17" stroke-linecap="round"/>
<path d="M680.834 831.419C670.487 862.045 656.115 892.686 668.505 924.613C678.054 949.219 691.158 942.121 693.707 917.905C697.144 885.256 680.834 854.251 680.834 821.628" stroke="#3C3131" stroke-width="17" stroke-linecap="round"/>
</svg>
