<svg width="20" height="20" viewBox="0 0 20 20" fill="none" xmlns="http://www.w3.org/2000/svg">
<g clip-path="url(#clip0_8_126)">
<path d="M10 12.5C11.3807 12.5 12.5 11.3807 12.5 10C12.5 8.61929 11.3807 7.5 10 7.5C8.61929 7.5 7.5 8.61929 7.5 10C7.5 11.3807 8.61929 12.5 10 12.5Z" stroke="black" stroke-width="3" stroke-linecap="round" stroke-linejoin="round"/>
<path d="M16.1671 12.5001C16.0561 12.7514 16.0231 13.0303 16.0721 13.3006C16.1211 13.5709 16.25 13.8204 16.4421 14.0168L16.4921 14.0668C16.647 14.2216 16.77 14.4054 16.8538 14.6077C16.9377 14.81 16.9809 15.0269 16.9809 15.2459C16.9809 15.465 16.9377 15.6818 16.8538 15.8842C16.77 16.0865 16.647 16.2703 16.4921 16.4251C16.3373 16.5801 16.1535 16.703 15.9511 16.7869C15.7488 16.8707 15.5319 16.9139 15.3129 16.9139C15.0939 16.9139 14.877 16.8707 14.6747 16.7869C14.4723 16.703 14.2885 16.5801 14.1337 16.4251L14.0837 16.3751C13.8873 16.183 13.6379 16.0541 13.3676 16.0051C13.0972 15.9561 12.8184 15.9892 12.5671 16.1001C12.3206 16.2057 12.1104 16.3811 11.9623 16.6047C11.8143 16.8283 11.7348 17.0903 11.7337 17.3584V17.5001C11.7337 17.9421 11.5581 18.3661 11.2456 18.6786C10.933 18.9912 10.5091 19.1668 10.0671 19.1668C9.62505 19.1668 9.20112 18.9912 8.88856 18.6786C8.576 18.3661 8.40041 17.9421 8.40041 17.5001V17.4251C8.39395 17.1493 8.30467 16.8818 8.14416 16.6574C7.98366 16.4329 7.75935 16.262 7.50041 16.1668C7.24906 16.0558 6.97025 16.0227 6.69992 16.0718C6.42959 16.1208 6.18014 16.2497 5.98374 16.4418L5.93374 16.4918C5.77895 16.6467 5.59514 16.7697 5.39281 16.8535C5.19048 16.9374 4.9736 16.9806 4.75457 16.9806C4.53555 16.9806 4.31867 16.9374 4.11634 16.8535C3.91401 16.7697 3.7302 16.6467 3.57541 16.4918C3.42045 16.337 3.29751 16.1532 3.21364 15.9508C3.12977 15.7485 3.0866 15.5316 3.0866 15.3126C3.0866 15.0936 3.12977 14.8767 3.21364 14.6744C3.29751 14.472 3.42045 14.2882 3.57541 14.1334L3.62541 14.0834C3.81752 13.887 3.94639 13.6376 3.99541 13.3673C4.04443 13.0969 4.01134 12.8181 3.90041 12.5668C3.79477 12.3203 3.61937 12.1101 3.39579 11.962C3.17222 11.814 2.91023 11.7345 2.64207 11.7334H2.50041C2.05838 11.7334 1.63446 11.5578 1.3219 11.2453C1.00933 10.9327 0.83374 10.5088 0.83374 10.0668C0.83374 9.62474 1.00933 9.20082 1.3219 8.88826C1.63446 8.5757 2.05838 8.4001 2.50041 8.4001H2.57541C2.85124 8.39365 3.11874 8.30437 3.34316 8.14386C3.56757 7.98335 3.7385 7.75905 3.83374 7.5001C3.94467 7.24876 3.97776 6.96994 3.92874 6.69961C3.87973 6.42928 3.75085 6.17983 3.55874 5.98344L3.50874 5.93344C3.35378 5.77865 3.23085 5.59483 3.14697 5.3925C3.0631 5.19017 3.01993 4.97329 3.01993 4.75427C3.01993 4.53524 3.0631 4.31836 3.14697 4.11603C3.23085 3.9137 3.35378 3.72989 3.50874 3.5751C3.66353 3.42014 3.84734 3.29721 4.04967 3.21334C4.252 3.12946 4.46888 3.08629 4.68791 3.08629C4.90693 3.08629 5.12381 3.12946 5.32614 3.21334C5.52847 3.29721 5.71228 3.42014 5.86707 3.5751L5.91707 3.6251C6.11347 3.81722 6.36292 3.94609 6.63325 3.99511C6.90358 4.04412 7.18239 4.01103 7.43374 3.9001H7.50041C7.74688 3.79447 7.95709 3.61906 8.10515 3.39549C8.25321 3.17191 8.33267 2.90992 8.33374 2.64177V2.5001C8.33374 2.05807 8.50933 1.63415 8.8219 1.32159C9.13446 1.00903 9.55838 0.833435 10.0004 0.833435C10.4424 0.833435 10.8664 1.00903 11.1789 1.32159C11.4915 1.63415 11.6671 2.05807 11.6671 2.5001V2.5751C11.6681 2.84326 11.7476 3.10525 11.8957 3.32882C12.0437 3.5524 12.2539 3.7278 12.5004 3.83344C12.7518 3.94436 13.0306 3.97745 13.3009 3.92844C13.5712 3.87942 13.8207 3.75055 14.0171 3.55844L14.0671 3.50844C14.2219 3.35347 14.4057 3.23054 14.608 3.14667C14.8103 3.0628 15.0272 3.01962 15.2462 3.01962C15.4653 3.01962 15.6821 3.0628 15.8845 3.14667C16.0868 3.23054 16.2706 3.35347 16.4254 3.50844C16.5804 3.66322 16.7033 3.84704 16.7872 4.04937C16.871 4.2517 16.9142 4.46858 16.9142 4.6876C16.9142 4.90663 16.871 5.12351 16.7872 5.32584C16.7033 5.52817 16.5804 5.71198 16.4254 5.86677L16.3754 5.91677C16.1833 6.11317 16.0544 6.36262 16.0054 6.63294C15.9564 6.90327 15.9895 7.18209 16.1004 7.43344V7.5001C16.206 7.74658 16.3814 7.95678 16.605 8.10485C16.8286 8.25291 17.0906 8.33237 17.3587 8.33344H17.5004C17.9424 8.33344 18.3664 8.50903 18.6789 8.82159C18.9915 9.13415 19.1671 9.55807 19.1671 10.0001C19.1671 10.4421 18.9915 10.8661 18.6789 11.1786C18.3664 11.4912 17.9424 11.6668 17.5004 11.6668H17.4254C17.1572 11.6678 16.8953 11.7473 16.6717 11.8954C16.4481 12.0434 16.2727 12.2536 16.1671 12.5001V12.5001Z" stroke="black" stroke-width="3" stroke-linecap="round" stroke-linejoin="round"/>
</g>
<defs>
<clipPath id="clip0_8_126">
<rect width="20" height="20" fill="white"/>
</clipPath>
</defs>
</svg>
